<?xml version="1.0" standalone="no"?>
<!DOCTYPE svg PUBLIC "-//W3C//DTD SVG 20010904//EN"
 "http://www.w3.org/TR/2001/REC-SVG-20010904/DTD/svg10.dtd">
<svg version="1.0" xmlns="http://www.w3.org/2000/svg"
 width="611.000000pt" height="611.000000pt" viewBox="0 0 611.000000 611.000000"
 preserveAspectRatio="xMidYMid meet">
<metadata>
Created by potrace 1.14, written by Peter Selinger 2001-2017
</metadata>
<g transform="translate(0.000000,611.000000) scale(0.100000,-0.100000)"
fill="#000000" stroke="none">
<path d="M1477 4144 c-11 -11 31 -134 45 -134 5 0 8 -5 8 -12 0 -19 78 -87
134 -116 28 -14 53 -26 56 -27 3 0 11 -4 18 -8 6 -5 12 -6 12 -2 0 3 10 0 23
-7 12 -7 24 -13 27 -13 3 -1 30 -9 60 -19 30 -10 69 -20 85 -23 17 -3 35 -9
40 -13 6 -5 20 -9 30 -9 11 1 31 -2 45 -6 14 -4 31 -7 38 -7 6 -1 12 -8 12
-15 0 -8 -3 -12 -8 -9 -4 2 -28 7 -52 10 -70 10 -123 18 -145 23 -11 2 -32 6
-47 8 -15 2 -46 9 -70 16 -24 6 -52 13 -63 15 -11 1 -36 8 -55 13 -19 6 -38
11 -42 11 -23 0 15 -84 55 -122 36 -34 120 -75 173 -82 22 -4 51 -9 64 -11 31
-7 213 -7 258 0 17 2 32 1 32 -3 0 -4 -8 -8 -17 -9 -19 -2 -53 -8 -93 -18 -14
-4 -88 -8 -165 -10 -77 -2 -141 -4 -143 -4 -7 -2 49 -51 84 -73 86 -54 217
-58 334 -11 8 4 17 7 20 8 3 1 28 12 55 24 65 29 95 41 95 37 0 -6 -125 -81
-132 -78 -5 1 -8 -3 -8 -8 0 -6 -9 -10 -20 -10 -11 0 -20 -4 -20 -8 0 -4 -10
-8 -22 -9 -11 -1 -24 -7 -28 -13 -4 -6 -11 -10 -16 -9 -16 2 -54 -13 -54 -22
0 -16 49 -41 97 -48 44 -6 117 10 133 29 3 4 28 21 55 40 28 18 60 42 72 53
13 11 25 18 28 15 6 -6 -83 -90 -144 -135 l-43 -32 36 -6 c20 -4 36 -11 36
-15 0 -11 64 -1 68 11 2 5 7 7 12 4 8 -5 47 31 117 107 23 25 47 49 54 53 13
9 -18 -47 -41 -73 -37 -41 -79 -106 -74 -114 10 -16 86 1 112 24 47 43 62 58
57 58 -3 0 4 11 17 24 37 38 58 66 58 76 0 6 4 10 9 10 5 0 12 8 15 18 8 24
92 112 108 113 67 7 110 5 114 -4 6 -19 10 -320 4 -345 -5 -22 -7 -21 -50 22
-63 63 -83 87 -76 94 3 3 6 2 6 -3 0 -4 7 -2 15 5 8 7 15 9 15 6 0 -4 14 2 30
14 55 39 36 79 -38 84 -98 7 -152 -62 -122 -154 7 -22 18 -40 23 -40 6 0 8 -3
4 -6 -12 -13 133 -134 161 -134 5 0 15 -7 22 -15 11 -13 8 -13 -21 -3 -31 11
-34 10 -64 -24 -47 -55 -51 -138 -10 -198 15 -22 30 -40 34 -40 3 -1 24 -16
46 -36 38 -32 38 -34 11 -24 -26 10 -32 8 -53 -16 -13 -15 -24 -32 -24 -38 -1
-6 -3 -24 -5 -40 -2 -16 3 -41 11 -57 16 -29 75 -77 75 -60 0 5 -4 12 -9 16
-20 12 -22 64 -6 100 33 68 40 45 40 -135 1 -94 -2 -170 -5 -170 -3 0 -18 25
-35 55 -29 54 -122 157 -161 178 -10 6 -21 13 -24 16 -3 4 -27 18 -55 31 -27
14 -52 28 -55 31 -5 6 -143 60 -157 61 -4 1 -24 8 -42 16 -19 7 -42 15 -52 17
-30 6 -103 43 -146 74 -103 75 -125 202 -47 270 40 36 42 40 12 36 -106 -13
-160 -128 -114 -239 22 -52 20 -54 -9 -20 -32 37 -43 77 -35 131 8 48 0 54
-23 19 -36 -55 -37 -136 -2 -190 33 -49 144 -119 242 -152 85 -28 75 -40 -17
-19 -56 12 -131 49 -183 89 -27 21 -51 35 -53 33 -8 -8 20 -61 46 -87 43 -44
138 -80 245 -95 17 -2 53 -7 80 -10 54 -7 90 -13 90 -15 0 -1 18 -3 39 -6 61
-6 63 -20 2 -23 -133 -5 -198 -39 -250 -132 l-19 -34 29 25 c16 14 31 27 34
30 17 19 71 50 86 50 14 0 9 -8 -18 -30 -67 -56 -89 -132 -60 -210 9 -24 9
-23 22 14 7 21 30 55 52 75 57 54 173 91 223 70 23 -9 21 -10 -20 -13 -33 -2
-105 -27 -105 -36 0 -3 46 -6 103 -6 107 -2 128 -5 196 -29 23 -8 42 -14 44
-14 5 1 62 -26 67 -32 3 -3 14 -9 24 -13 20 -7 20 -7 1 16 -48 58 -110 118
-122 118 -7 0 -13 3 -13 8 0 18 -121 55 -188 58 -29 1 -55 4 -58 7 -9 9 79 19
112 13 16 -3 47 -8 69 -12 22 -4 44 -12 48 -18 6 -7 7 -6 5 4 -7 24 -96 86
-183 129 -140 68 -200 96 -207 96 -13 0 -118 60 -118 67 0 4 21 -2 48 -13 26
-11 90 -36 142 -55 184 -68 286 -130 377 -229 76 -83 73 -80 123 -161 52 -82
52 -82 57 -68 30 84 274 360 297 337 3 -4 6 -2 6 4 0 13 118 70 220 107 41 15
82 30 90 33 8 4 17 7 20 8 3 1 16 6 30 12 36 15 76 26 70 20 -10 -11 -125 -67
-137 -67 -7 0 -13 -4 -13 -10 0 -5 -6 -10 -13 -10 -7 0 -30 -9 -52 -20 -22
-11 -46 -21 -55 -23 -8 -1 -17 -4 -20 -7 -3 -4 -30 -18 -60 -32 -61 -28 -160
-102 -160 -119 0 -8 4 -8 13 -2 29 23 149 34 225 22 29 -5 -3 -12 -66 -15 -96
-3 -188 -46 -264 -123 -32 -32 -58 -63 -58 -69 0 -6 19 0 43 13 92 52 142 64
297 70 52 3 97 5 100 5 9 1 -63 31 -85 35 -11 2 -31 4 -44 4 -39 1 -16 13 31
16 101 5 210 -59 245 -143 l15 -36 14 24 c30 55 4 141 -60 198 -55 48 -14 42
53 -9 29 -22 55 -39 57 -36 6 6 -40 64 -67 86 -21 16 -89 49 -104 51 -3 0 -35
0 -72 0 -92 1 -72 12 62 36 11 1 41 6 67 8 26 3 64 9 85 12 21 4 44 7 51 7 6
0 12 4 12 9 0 5 4 7 9 3 18 -10 121 37 160 73 23 22 42 51 46 71 l7 34 -48
-39 c-71 -57 -131 -85 -231 -107 -38 -8 -26 11 15 23 20 7 66 28 102 47 113
60 155 101 166 158 3 15 6 30 6 34 5 22 -17 92 -37 117 l-24 29 6 -30 c3 -16
6 -39 7 -50 3 -30 -22 -97 -44 -117 -20 -19 -29 -11 -10 8 27 27 29 126 5 178
-17 35 -78 85 -97 79 -4 -2 -19 2 -33 7 -36 14 -31 -5 6 -20 35 -15 71 -77 71
-124 0 -79 -66 -163 -167 -210 -31 -15 -64 -29 -74 -31 -46 -9 -225 -81 -291
-116 -64 -35 -153 -97 -170 -120 -3 -4 -21 -26 -40 -49 -19 -23 -45 -61 -57
-83 -27 -49 -25 -56 -27 145 -1 167 6 191 38 124 20 -42 20 -53 2 -88 -9 -16
-11 -30 -5 -33 5 -4 9 -2 9 3 0 5 10 14 23 21 42 22 60 97 36 144 -7 11 -22
32 -35 46 -26 28 -30 41 -14 41 6 0 21 10 33 23 77 78 76 194 -3 260 l-28 24
34 18 c147 79 203 249 99 298 -27 13 -100 14 -132 2 -37 -13 3 -78 55 -89 34
-8 41 -20 17 -30 -8 -3 -15 -12 -15 -19 0 -15 -78 -87 -95 -87 -10 0 -10 15
-3 265 l3 100 50 2 c65 2 118 -30 160 -98 34 -55 67 -100 97 -132 18 -20 40
-45 48 -55 8 -11 26 -25 40 -33 26 -14 100 -20 100 -9 0 4 -29 46 -65 93 -103
137 -85 134 42 -6 54 -59 84 -78 122 -79 30 -1 91 19 91 31 0 3 -22 21 -48 39
-47 32 -153 133 -122 117 8 -5 45 -29 81 -55 91 -66 125 -82 175 -82 45 0 115
28 121 48 2 6 -16 17 -39 24 -53 17 -104 41 -185 88 -75 43 -84 63 -13 27 27
-14 56 -25 65 -25 8 0 15 -4 15 -10 0 -5 9 -10 19 -10 11 0 22 -4 26 -9 3 -6
13 -10 23 -9 9 0 28 -3 42 -7 69 -21 221 -3 241 27 3 6 9 9 13 8 8 -2 55 37
74 61 11 15 3 16 -85 13 -102 -3 -270 16 -313 35 -21 9 -15 10 29 5 57 -7 195
-6 246 0 162 21 252 73 295 169 11 23 16 43 12 45 -5 1 -53 -9 -108 -24 -54
-14 -112 -27 -129 -28 -26 -3 -48 -7 -130 -22 -71 -14 -125 -16 -125 -3 0 7 3
10 6 7 3 -4 63 9 132 28 70 19 134 37 142 39 8 2 16 4 18 5 1 2 5 3 10 5 136
38 261 129 302 220 17 37 33 105 25 105 -3 0 -58 -27 -125 -60 -154 -78 -482
-209 -558 -224 -9 -1 -24 -6 -32 -9 -24 -10 -228 -65 -270 -72 -31 -6 -88 -15
-115 -20 -11 -1 -49 -8 -85 -15 -36 -7 -78 -14 -95 -15 -16 -2 -30 -4 -30 -5
0 -1 -25 -3 -55 -5 -30 -2 -68 -8 -84 -14 -16 -7 -31 -10 -33 -8 -7 8 16 56
37 77 11 11 18 20 15 20 -2 0 7 12 20 26 40 43 50 137 20 193 -18 34 -64 77
-96 89 -24 10 -86 17 -101 12 -5 -1 -11 -3 -15 -4 -5 -1 -14 -5 -20 -9 -7 -5
-13 -6 -13 -3 0 13 -62 -50 -82 -82 -24 -38 -28 -124 -8 -162 11 -20 43 -61
77 -95 16 -17 28 -65 16 -65 -5 0 -13 3 -17 7 -8 9 -29 13 -86 18 -76 6 -212
25 -220 30 -4 2 -28 6 -56 10 -27 3 -57 8 -67 11 -11 3 -29 7 -40 9 -12 2 -31
6 -42 9 -102 26 -180 47 -230 62 -33 10 -62 19 -65 19 -52 14 -67 19 -77 28
-7 5 -13 6 -13 2 0 -4 -6 -3 -12 2 -7 6 -44 21 -83 34 -38 13 -73 28 -77 34
-4 5 -8 7 -8 3 0 -10 -129 46 -281 123 -53 26 -99 46 -102 43z m1687 -232
c-17 -93 -130 -142 -208 -89 -29 20 -69 94 -59 110 3 4 13 -7 22 -25 31 -57
85 -85 143 -72 29 6 90 62 82 75 -2 4 0 10 6 14 6 4 7 11 4 17 -4 6 -2 8 4 4
6 -3 8 -19 6 -34z m-958 -102 c26 -8 43 -12 119 -25 11 -2 20 -4 20 -5 0 -2
31 -8 70 -15 17 -2 41 -7 55 -10 14 -3 39 -8 55 -10 17 -2 55 -8 85 -14 100
-18 125 -22 160 -25 31 -3 83 -11 143 -22 21 -4 50 -31 40 -37 -5 -3 -28 -5
-53 -6 -56 -1 -65 -4 -115 -26 -59 -27 -74 -27 -40 1 17 13 33 24 38 24 4 0 7
4 7 9 0 11 -94 -14 -142 -38 -62 -31 -57 -3 7 33 l30 17 -50 -6 c-27 -3 -59
-8 -70 -10 -50 -9 -79 -16 -87 -21 -4 -3 -8 -1 -8 5 0 5 27 20 60 32 33 12 60
23 60 24 0 3 -111 -4 -155 -10 -110 -15 -112 -15 -91 0 10 8 23 12 27 9 5 -3
9 -1 9 3 0 5 10 10 23 11 12 1 31 4 42 6 11 3 26 5 33 5 19 1 14 17 -5 18 -22
1 -61 10 -138 30 -33 8 -67 16 -75 18 -8 2 -40 13 -70 24 -54 19 -40 30 16 11z
m1688 -2 c-3 -4 -13 -8 -23 -8 -10 0 -21 -3 -25 -7 -3 -4 -12 -8 -19 -9 -7 -1
-41 -10 -77 -19 -36 -9 -72 -18 -81 -20 -9 -2 -33 -8 -52 -13 -20 -6 -38 -8
-41 -6 -4 2 -2 -2 4 -8 6 -7 26 -13 44 -14 32 -2 96 -29 96 -40 0 -3 -15 -3
-32 0 -18 4 -55 9 -83 12 -27 3 -65 7 -84 9 -41 5 -33 -5 22 -26 66 -26 57
-40 -15 -22 -35 8 -78 17 -97 19 -19 3 -39 8 -45 11 -6 4 -5 -1 3 -10 7 -9 18
-17 23 -17 13 0 52 -39 46 -46 -4 -3 -21 2 -38 11 -52 27 -140 53 -146 44 -3
-5 2 -9 10 -9 9 0 16 -4 16 -8 0 -5 11 -15 25 -22 13 -7 22 -17 19 -21 -3 -5
-20 -1 -37 8 -18 9 -34 18 -37 18 -3 0 -15 6 -28 13 -13 7 -46 13 -75 14 -29
0 -55 2 -60 5 -11 7 20 33 45 39 45 9 74 13 123 19 28 3 61 7 75 10 14 3 43 7
65 10 22 3 51 7 65 10 14 2 43 7 65 10 44 7 70 13 70 15 0 1 9 3 20 5 11 1 31
5 45 8 14 3 54 10 90 17 36 7 71 16 77 19 18 9 53 8 47 -1z m-904 -828 c0 -63
-11 -75 -32 -37 -13 23 -12 51 3 80 18 33 29 17 29 -43z m118 27 c11 -22 11
-32 0 -54 -23 -47 -35 -38 -35 27 0 65 12 74 35 27z"/>
<path d="M1678 3489 c-7 -4 -17 -5 -23 -1 -5 3 -4 -2 4 -12 8 -9 19 -15 25
-13 27 11 85 -64 100 -128 12 -52 38 -115 48 -115 17 0 -13 123 -43 176 -24
44 -24 52 1 29 35 -31 59 -79 64 -126 3 -24 7 -54 10 -66 9 -42 18 -153 12
-153 -3 0 -13 16 -22 35 -19 40 -72 95 -91 95 -7 0 -13 3 -13 8 0 19 -73 5
-103 -20 l-32 -26 41 5 c93 12 146 -50 200 -232 27 -92 51 -144 97 -211 38
-57 124 -131 136 -119 3 3 -4 12 -15 19 -36 26 -60 51 -97 104 -43 60 -50 92
-9 42 56 -71 140 -134 190 -144 9 -1 24 -6 32 -9 25 -11 159 -24 170 -17 6 4
-4 7 -22 8 -32 2 -70 8 -75 12 -3 3 -3 3 -53 14 -90 21 -195 108 -240 199 -16
31 -27 57 -25 57 3 0 0 12 -6 28 -6 15 -12 38 -15 52 -2 14 -6 36 -9 50 -3 14
-8 68 -10 120 -2 52 -4 95 -5 95 -1 0 -4 20 -6 44 -8 84 -68 178 -124 197 -33
11 -77 12 -92 3z"/>
<path d="M4296 3488 c-77 -28 -120 -105 -132 -233 -3 -33 -7 -65 -9 -72 -2 -7
0 -15 6 -18 5 -4 6 -12 2 -18 -4 -7 -8 -28 -9 -47 -2 -38 -12 -105 -20 -132
-3 -9 -7 -27 -9 -40 -8 -40 -63 -143 -95 -176 -66 -70 -213 -132 -317 -135 -7
0 -10 -4 -7 -9 3 -5 13 -7 22 -4 10 3 40 8 69 11 28 3 71 12 95 21 24 9 48 17
53 18 28 5 145 105 145 124 0 5 9 17 21 28 l21 19 -13 -30 c-21 -48 -50 -86
-104 -139 -40 -38 -44 -45 -20 -32 91 48 162 159 215 336 47 158 106 226 188
218 36 -3 38 -2 28 15 -10 17 -53 33 -83 30 -7 0 -20 -1 -28 -2 -23 -2 -91
-68 -105 -101 -17 -40 -33 -38 -26 3 3 19 8 60 11 93 11 106 48 205 82 218 17
7 16 1 -1 -27 -21 -32 -44 -109 -51 -164 -5 -46 -5 -47 10 -23 8 14 24 57 36
95 24 78 56 128 99 150 22 11 30 12 33 2 4 -9 6 -9 6 0 1 6 -3 15 -9 18 -18
11 -75 13 -104 3z"/>
<path d="M1163 2068 c-22 -11 -35 -35 -38 -70 -2 -22 42 -64 75 -71 45 -11 64
-31 56 -60 -6 -24 -11 -27 -46 -27 -22 0 -49 5 -60 12 -22 14 -33 8 -24 -15 6
-16 60 -32 99 -29 48 3 93 53 75 82 -5 8 -7 17 -4 21 2 4 -25 22 -61 40 -58
29 -66 36 -63 58 2 21 9 27 36 29 18 2 40 -2 48 -9 24 -20 38 4 15 25 -24 21
-79 29 -108 14z"/>
<path d="M1556 2048 c9 -42 8 -186 -1 -216 -7 -22 -5 -24 26 -21 46 4 52 8 38
25 -16 19 -16 199 0 217 15 19 4 27 -36 27 -34 0 -34 -1 -27 -32z"/>
<path d="M1870 1946 c0 -129 1 -136 20 -136 22 0 23 4 21 103 -1 58 11 72 31
36 66 -119 81 -139 98 -139 12 0 20 7 21 18 4 106 4 234 -2 243 -3 6 -15 8
-25 5 -17 -5 -19 -15 -16 -88 4 -97 0 -96 -62 14 -29 52 -48 74 -64 76 -22 3
-22 2 -22 -132z"/>
<path d="M2353 2064 c-39 -19 -45 -37 -45 -119 0 -83 7 -100 48 -120 35 -16
77 -14 117 7 28 14 9 30 -26 22 -79 -18 -98 2 -96 98 1 37 7 72 13 76 23 18
44 20 69 7 15 -8 30 -9 38 -4 11 8 9 13 -10 29 -28 24 -65 25 -108 4z"/>
<path d="M2739 2068 c-1 -7 -3 -66 -3 -131 -2 -133 -8 -125 90 -126 45 -1 63
2 67 13 7 19 -8 24 -61 21 -23 -1 -46 3 -50 9 -9 14 -11 66 -3 67 3 1 16 3 29
4 24 2 49 21 41 30 -3 2 -19 5 -37 7 -32 2 -34 5 -36 43 -2 33 10 41 58 39 45
-2 71 18 40 30 -30 12 -134 7 -135 -6z"/>
<path d="M3471 2029 c-18 -29 -30 -58 -26 -67 4 -12 8 -13 17 -4 23 23 28 11
28 -63 0 -59 3 -77 15 -82 9 -3 19 -3 22 1 4 3 7 63 7 133 1 110 -2 128 -15
131 -11 2 -28 -15 -48 -49z"/>
<path d="M3834 2074 c-28 -7 -52 -52 -47 -89 5 -37 38 -64 79 -65 17 0 33 -3
37 -6 5 -6 -13 -32 -47 -64 -21 -21 -14 -42 11 -33 26 10 47 36 71 86 27 57
28 117 5 146 -18 22 -69 33 -109 25z m74 -46 c16 -16 15 -40 -1 -62 -29 -40
-100 14 -73 56 12 21 56 24 74 6z"/>
<path d="M4255 2070 c-47 -19 -60 -67 -31 -113 17 -25 34 -34 79 -41 24 -3 23
-13 -7 -49 -27 -33 -34 -57 -15 -57 19 0 78 69 85 98 4 15 10 32 14 37 3 6 5
28 4 50 -3 66 -65 102 -129 75z m82 -53 c15 -32 -4 -68 -32 -64 -56 7 -72 62
-25 83 30 14 44 9 57 -19z"/>
<path d="M4661 2059 c-53 -43 -14 -139 57 -141 40 -1 41 -16 2 -53 -33 -31
-39 -55 -15 -55 15 0 79 62 81 78 0 4 3 14 6 22 20 50 24 78 16 107 -15 57
-99 81 -147 42z m109 -65 c0 -22 -25 -44 -49 -44 -6 0 -20 9 -31 20 -16 16
-18 24 -8 44 21 47 88 31 88 -20z"/>
</g>
</svg>
